<svg width="133" height="16" viewBox="0 0 133 16" fill="none" xmlns="http://www.w3.org/2000/svg">
<path d="M16.5392 6.00113C16.5221 5.94841 16.4905 5.90155 16.4481 5.86585C16.4057 5.83016 16.3541 5.80704 16.2992 5.79913L10.9392 5.02013L8.54223 0.164125C8.5177 0.114826 8.4799 0.0733484 8.43308 0.0443544C8.38627 0.0153604 8.3323 0 8.27723 0C8.22216 0 8.16819 0.0153604 8.12138 0.0443544C8.07456 0.0733484 8.03676 0.114826 8.01223 0.164125L5.61323 5.02113L0.253229 5.80013C0.198678 5.80825 0.147468 5.83141 0.105337 5.867C0.063205 5.90259 0.0318162 5.94922 0.014687 6.00164C-0.00244215 6.05407 -0.00463505 6.11023 0.00835402 6.16383C0.0213431 6.21743 0.049001 6.26636 0.088229 6.30513L3.96823 10.0851L3.05123 15.4251C3.04223 15.4795 3.04855 15.5354 3.0695 15.5864C3.09045 15.6374 3.12519 15.6816 3.16983 15.714C3.21446 15.7464 3.26724 15.7657 3.32224 15.7698C3.37724 15.7739 3.43229 15.7626 3.48123 15.7371L8.27623 13.2171L13.0702 15.7371C13.1192 15.7631 13.1745 15.7747 13.2298 15.7708C13.2851 15.7668 13.3381 15.7475 13.3829 15.7148C13.4277 15.6822 13.4625 15.6377 13.4832 15.5863C13.504 15.5349 13.5099 15.4787 13.5002 15.4241L12.5842 10.0861L16.4642 6.30413C16.5442 6.22413 16.5742 6.10713 16.5392 6.00013V6.00113Z" fill="#EF9546"/>
<path d="M45.5392 6.00113C45.5221 5.94841 45.4905 5.90155 45.4481 5.86585C45.4057 5.83016 45.3541 5.80704 45.2992 5.79913L39.9392 5.02013L37.5422 0.164125C37.5177 0.114826 37.4799 0.0733484 37.4331 0.0443544C37.3863 0.0153604 37.3323 0 37.2772 0C37.2222 0 37.1682 0.0153604 37.1214 0.0443544C37.0746 0.0733484 37.0368 0.114826 37.0122 0.164125L34.6132 5.02113L29.2532 5.80013C29.1987 5.80825 29.1475 5.83141 29.1053 5.867C29.0632 5.90259 29.0318 5.94922 29.0147 6.00164C28.9976 6.05407 28.9954 6.11023 29.0084 6.16383C29.0213 6.21743 29.049 6.26636 29.0882 6.30513L32.9682 10.0851L32.0512 15.4251C32.0422 15.4795 32.0486 15.5354 32.0695 15.5864C32.0904 15.6374 32.1252 15.6816 32.1698 15.714C32.2145 15.7464 32.2672 15.7657 32.3222 15.7698C32.3772 15.7739 32.4323 15.7626 32.4812 15.7371L37.2762 13.2171L42.0702 15.7371C42.1192 15.7631 42.1745 15.7747 42.2298 15.7708C42.2851 15.7668 42.3381 15.7475 42.3829 15.7148C42.4277 15.6822 42.4625 15.6377 42.4832 15.5863C42.504 15.5349 42.5099 15.4787 42.5002 15.4241L41.5842 10.0861L45.4642 6.30413C45.5442 6.22413 45.5742 6.10713 45.5392 6.00013V6.00113Z" fill="#EF9546"/>
<path d="M74.5392 6.00113C74.5221 5.94841 74.4905 5.90155 74.4481 5.86585C74.4057 5.83016 74.3541 5.80704 74.2992 5.79913L68.9392 5.02013L66.5422 0.164125C66.5177 0.114826 66.4799 0.0733484 66.4331 0.0443544C66.3863 0.0153604 66.3323 0 66.2772 0C66.2222 0 66.1682 0.0153604 66.1214 0.0443544C66.0746 0.0733484 66.0368 0.114826 66.0122 0.164125L63.6132 5.02113L58.2532 5.80013C58.1987 5.80825 58.1475 5.83141 58.1053 5.867C58.0632 5.90259 58.0318 5.94922 58.0147 6.00164C57.9976 6.05407 57.9954 6.11023 58.0084 6.16383C58.0213 6.21743 58.049 6.26636 58.0882 6.30513L61.9682 10.0851L61.0512 15.4251C61.0422 15.4795 61.0486 15.5354 61.0695 15.5864C61.0904 15.6374 61.1252 15.6816 61.1698 15.714C61.2145 15.7464 61.2672 15.7657 61.3222 15.7698C61.3772 15.7739 61.4323 15.7626 61.4812 15.7371L66.2762 13.2171L71.0702 15.7371C71.1192 15.7631 71.1745 15.7747 71.2298 15.7708C71.2851 15.7668 71.3381 15.7475 71.3829 15.7148C71.4277 15.6822 71.4625 15.6377 71.4832 15.5863C71.504 15.5349 71.5099 15.4787 71.5002 15.4241L70.5842 10.0861L74.4642 6.30413C74.5442 6.22413 74.5742 6.10713 74.5392 6.00013V6.00113Z" fill="#EF9546"/>
<path d="M132.539 6.00113C132.522 5.94841 132.49 5.90155 132.448 5.86585C132.406 5.83016 132.354 5.80704 132.299 5.79913L126.939 5.02013L124.542 0.164125C124.518 0.114826 124.48 0.0733484 124.433 0.0443544C124.386 0.0153604 124.332 0 124.277 0C124.222 0 124.168 0.0153604 124.121 0.0443544C124.075 0.0733484 124.037 0.114826 124.012 0.164125L121.613 5.02113L116.253 5.80013C116.199 5.80825 116.147 5.83141 116.105 5.867C116.063 5.90259 116.032 5.94922 116.015 6.00164C115.998 6.05407 115.995 6.11023 116.008 6.16383C116.021 6.21743 116.049 6.26636 116.088 6.30513L119.968 10.0851L119.051 15.4251C119.042 15.4795 119.049 15.5354 119.07 15.5864C119.09 15.6374 119.125 15.6816 119.17 15.714C119.214 15.7464 119.267 15.7657 119.322 15.7698C119.377 15.7739 119.432 15.7626 119.481 15.7371L124.276 13.2171L129.07 15.7371C129.119 15.7631 129.174 15.7747 129.23 15.7708C129.285 15.7668 129.338 15.7475 129.383 15.7148C129.428 15.6822 129.462 15.6377 129.483 15.5863C129.504 15.5349 129.51 15.4787 129.5 15.4241L128.584 10.0861L132.464 6.30413C132.544 6.22413 132.574 6.10713 132.539 6.00013V6.00113Z" fill="#EF9546"/>
<path d="M103.539 6.00113C103.522 5.94841 103.49 5.90155 103.448 5.86585C103.406 5.83016 103.354 5.80704 103.299 5.79913L97.9392 5.02013L95.5422 0.164125C95.5177 0.114826 95.4799 0.0733484 95.4331 0.0443544C95.3863 0.0153604 95.3323 0 95.2772 0C95.2222 0 95.1682 0.0153604 95.1214 0.0443544C95.0746 0.0733484 95.0368 0.114826 95.0122 0.164125L92.6132 5.02113L87.2532 5.80013C87.1987 5.80825 87.1475 5.83141 87.1053 5.867C87.0632 5.90259 87.0318 5.94922 87.0147 6.00164C86.9976 6.05407 86.9954 6.11023 87.0084 6.16383C87.0213 6.21743 87.049 6.26636 87.0882 6.30513L90.9682 10.0851L90.0512 15.4251C90.0422 15.4795 90.0486 15.5354 90.0695 15.5864C90.0904 15.6374 90.1252 15.6816 90.1698 15.714C90.2145 15.7464 90.2672 15.7657 90.3222 15.7698C90.3772 15.7739 90.4323 15.7626 90.4812 15.7371L95.2762 13.2171L100.07 15.7371C100.119 15.7631 100.174 15.7747 100.23 15.7708C100.285 15.7668 100.338 15.7475 100.383 15.7148C100.428 15.6822 100.462 15.6377 100.483 15.5863C100.504 15.5349 100.51 15.4787 100.5 15.4241L99.5842 10.0861L103.464 6.30413C103.544 6.22413 103.574 6.10713 103.539 6.00013V6.00113Z" fill="#EF9546"/>
</svg>
